<svg width="20" height="20" viewBox="0 0 20 20" fill="none" xmlns="http://www.w3.org/2000/svg">
<path d="M10.0833 17.3333C9.66667 17.3333 9.16667 17.1667 8.83333 16.8333C3.41667 12.0833 3.33333 12 3.33333 11.9167L3.25 11.8333C2.25 10.8333 1.66667 9.41667 1.66667 8V7.83333C1.75 4.83333 4.16667 2.5 7.16667 2.5C8.08333 2.5 9.33333 3 10.0833 4C10.8333 3 12.1667 2.5 13.0833 2.5C16.0833 2.5 18.4167 4.83333 18.5833 7.83333V8C18.5833 9.5 18 10.8333 17 11.9167L16.9167 12C16.8333 12.0833 16.1667 12.6667 11.4167 16.9167C11 17.1667 10.5833 17.3333 10.0833 17.3333ZM4.58333 11.6667C4.91667 12 6.58333 13.1667 9.66667 15.8333C9.91667 16.0833 10.25 16.0833 10.5 15.8333C13.6667 13 15.5 11.4167 15.9167 11.0833L16 11C16.8333 10.1667 17.25 9.08333 17.25 8V7.83333C17.1667 5.5 15.3333 3.75 13 3.75C12.4167 3.75 11.25 4.16667 10.8333 5.08333C10.6667 5.41667 10.3333 5.58333 10 5.58333C9.66667 5.58333 9.33333 5.41667 9.16667 5.08333C8.75 4.25 7.66667 3.75 7 3.75C4.75 3.75 2.83333 5.58333 2.75 7.83333V8.08333C2.75 9.16667 3.25 10.25 4 11L4.58333 11.6667Z" fill="black"/>
</svg>
