<svg width="24" height="24" viewBox="0 0 24 24" fill="none" xmlns="http://www.w3.org/2000/svg">
<path fill-rule="evenodd" clip-rule="evenodd" d="M19.9382 7.66933C18.512 4.24469 15.1704 2.01004 11.4607 2.00013C7.46246 1.97907 3.90737 4.54006 2.66105 8.3391C1.41473 12.1381 2.7619 16.3074 5.99559 18.6588C9.22927 21.0103 13.6107 21.0068 16.8407 18.6501L19.7207 21.5301C20.0135 21.8226 20.4878 21.8226 20.7807 21.5301C21.0731 21.2373 21.0731 20.7629 20.7807 20.4701L17.9907 17.6801C20.5968 15.04 21.3644 11.094 19.9382 7.66933ZM18.6006 14.1687C17.4032 17.0544 14.5845 18.9338 11.4602 18.9298V18.8898C7.21992 18.8844 3.77767 15.46 3.75021 11.2198C3.74617 8.09554 5.6256 5.27685 8.51127 4.07937C11.3969 2.8819 14.7199 3.54175 16.9291 5.75095C19.1383 7.96014 19.7981 11.2831 18.6006 14.1687Z" fill="#979797"/>
</svg>
